<?xml version="1.0" encoding="UTF-8"?>
<svg version="1.1" xmlns="http://www.w3.org/2000/svg" width="1024" height="1024">
<path d="M0 0 C337.92 0 675.84 0 1024 0 C1024 337.92 1024 675.84 1024 1024 C686.08 1024 348.16 1024 0 1024 C0 686.08 0 348.16 0 0 Z " fill="#1E3058" transform="translate(0,0)"/>
<path d="M0 0 C0.72767578 -0.02900391 1.45535156 -0.05800781 2.20507812 -0.08789062 C18.23545769 -0.2631597 32.90701144 6.37944215 47.25 12.75 C49.12749054 13.57087674 51.00559315 14.39035487 52.88427734 15.20849609 C56.60600227 16.83162511 60.32440362 18.46196926 64.03955078 20.10009766 C70.40955036 22.90863349 76.79790614 25.67384944 83.1875 28.4375 C84.3221167 28.93040527 85.4567334 29.42331055 86.62573242 29.93115234 C98.52989948 35.1015995 110.46495358 40.1998707 122.39675903 45.30612183 C145.67527451 55.26895204 168.92003607 65.30638711 192.13217163 75.42301941 C203.42795675 80.3452598 214.7308696 85.2510782 226.03408813 90.15621948 C229.46582914 91.64554622 232.89735336 93.13537156 236.32885742 94.62524414 C237.93452576 95.32207054 237.93452576 95.32207054 239.57263184 96.03297424 C241.64054577 96.93048042 243.70826016 97.8284465 245.77575684 98.72691345 C250.00196333 100.56157458 254.22965444 102.39043039 258.4777832 104.17382812 C259.44300903 104.58044174 259.44300903 104.58044174 260.42773438 104.99526978 C262.03571137 105.67027041 263.64624875 106.33916381 265.25708008 107.00732422 C284.71010943 116.05752828 298.78712758 132.86000119 307.0625 152.3125 C310.22193386 161.08016905 312.15388451 169.25932565 312.26782227 178.59912109 C312.28265467 179.67866027 312.28265467 179.67866027 312.29778671 180.78000832 C312.32969452 183.21528464 312.35448327 185.65057528 312.37890625 188.0859375 C312.39988619 189.88175684 312.42106715 191.67757383 312.44242859 193.47338867 C312.51196298 199.54468201 312.56892194 205.61606983 312.625 211.6875 C312.63504562 212.73716194 312.64509125 213.78682388 312.65544128 214.86829376 C313.09564524 260.9441768 313.23294691 307.02219124 313.29769701 353.09993064 C313.30776107 359.77634079 313.32543688 366.45270478 313.34622192 373.12908936 C313.37167358 381.37811628 313.38585915 389.62707571 313.38633865 397.87614322 C313.38682458 402.14736834 313.39201933 406.41844623 313.41010094 410.68963623 C313.42666445 414.65500915 313.42874209 418.62013683 313.42008102 422.58553243 C313.4193428 424.01880356 313.42356849 425.45208887 313.43358433 426.88532519 C313.59758848 451.83097192 305.54080756 474.31666516 288.0625 492.3125 C277.60855052 502.16908094 265.39729506 508.45479354 252.23583984 513.93338013 C248.40112421 515.53045758 244.57881769 517.15696203 240.75390625 518.77734375 C239.915784 519.13146835 239.07766174 519.48559296 238.21414185 519.85044861 C228.08996922 524.13347161 218.01260041 528.52405637 207.93234253 532.90917969 C202.22674436 535.39101129 196.51972162 537.86956062 190.8125 540.34765625 C189.66728378 540.84492218 188.52206757 541.34218811 187.34214783 541.85452271 C174.37424551 547.48290268 161.39172073 553.07728393 148.40896606 558.67129517 C133.05165208 565.2891617 117.70653509 571.93457829 102.3692627 578.59875488 C85.60547313 585.88162872 68.84008688 593.16107494 52.05032349 600.38391113 C50.25149774 601.15827661 48.45320171 601.93387399 46.65548706 602.71081543 C44.19372955 603.77434948 41.72997756 604.83312063 39.265625 605.890625 C38.56182205 606.19577026 37.8580191 606.50091553 37.13288879 606.81530762 C15.42968728 616.08935357 -7.61348378 617.35441113 -29.9375 609.3125 C-37.00224217 606.46626391 -43.84698412 603.15097313 -50.70654297 599.84814453 C-56.23984437 597.21821663 -61.84055276 594.7408145 -67.4375 592.25 C-69.8856652 591.15549877 -72.33360718 590.06051142 -74.78125 588.96484375 C-75.41978409 588.67918549 -76.05831818 588.39352722 -76.71620178 588.09921265 C-84.59689695 584.57250104 -92.46880097 581.02624974 -100.34136963 577.48144531 C-120.47021671 568.41814029 -140.60859615 559.37640441 -160.76171875 550.3671875 C-183.11860902 540.37245099 -205.46781337 530.36087133 -227.78741455 520.28308105 C-229.80573394 519.37198119 -231.8244586 518.46178521 -233.84326172 517.55175781 C-237.14775242 516.06022613 -240.44949484 514.56282611 -243.75 513.0625 C-244.64895996 512.65725098 -245.54791992 512.25200195 -246.47412109 511.83447266 C-263.88333581 503.88293991 -263.88333581 503.88293991 -270.3125 497.75 C-271.12976563 496.97785156 -271.94703125 496.20570313 -272.7890625 495.41015625 C-273.49804688 494.71792969 -274.20703125 494.02570313 -274.9375 493.3125 C-275.845 492.44625 -276.7525 491.58 -277.6875 490.6875 C-278.43 489.90375 -279.1725 489.12 -279.9375 488.3125 C-280.38222656 487.86261719 -280.82695312 487.41273438 -281.28515625 486.94921875 C-295.68105686 471.47842422 -301.26832919 450.33578047 -301.20492554 429.68890381 C-301.20945665 428.58329707 -301.21398776 427.47769034 -301.21865618 426.33858037 C-301.23122284 422.66805944 -301.22968483 418.99768837 -301.22802734 415.32714844 C-301.23401739 412.68141642 -301.24076839 410.03569574 -301.24838257 407.38996887 C-301.26491991 400.96931405 -301.27048878 394.54869598 -301.27160732 388.12802163 C-301.27256116 382.90389768 -301.27668809 377.67978574 -301.28300858 372.45566559 C-301.30060028 357.61113768 -301.30985056 342.76663856 -301.30834763 327.92210016 C-301.30826772 327.12361277 -301.3081878 326.32512538 -301.30810547 325.50244141 C-301.30798283 324.30323098 -301.30798283 324.30323098 -301.30785771 323.07979408 C-301.30704514 310.12916373 -301.32618072 297.17864977 -301.3543822 284.22805306 C-301.38317874 270.89796136 -301.39691882 257.56792631 -301.39519465 244.23780274 C-301.39453314 236.76698269 -301.39992027 229.29628471 -301.42155075 221.82549286 C-301.43985187 215.4643912 -301.44403716 209.10346698 -301.4305319 202.74235025 C-301.42404714 199.50376646 -301.4259376 196.26558911 -301.4412384 193.02702522 C-301.56147453 165.80050978 -296.62833564 143.16407182 -277.31640625 122.67578125 C-260.53374225 106.00334821 -237.8192159 98.01963369 -216.51275635 88.65878296 C-206.80863612 84.38772658 -197.1552586 80.00509414 -187.5 75.625 C-183.93118893 74.00737241 -180.36211942 72.39031564 -176.79296875 70.7734375 C-175.93741898 70.38580231 -175.0818692 69.99816711 -174.20039368 69.5987854 C-165.78514556 65.78752896 -157.35630898 62.00715812 -148.92407227 58.23364258 C-139.46098695 53.99810302 -130.00551325 49.74581873 -120.55175781 45.48950195 C-90.71567421 32.05657713 -90.71567421 32.05657713 -79.91967773 27.23461914 C-73.85083817 24.52304639 -67.79100638 21.79401605 -61.74371338 19.03477478 C-58.33796644 17.48244319 -54.92871693 15.9378919 -51.519104 14.39407349 C-49.8683794 13.64438223 -48.21918594 12.89130833 -46.57171631 12.13449097 C-31.29740007 5.12066189 -16.98554764 0.21537043 0 0 Z " fill="#FDFDFE" transform="translate(505.9375,204.6875)"/>
<path d="M0 0 C3.66131345 2.13576618 5.38144315 4.14752277 7 8 C7.251849 10.01019961 7.251849 10.01019961 7.25447559 12.17839909 C7.26030779 13.00862774 7.26613998 13.83885639 7.27214891 14.69424349 C7.26836958 15.6011345 7.26459026 16.50802551 7.26069641 17.44239807 C7.26452196 18.40994001 7.26834751 19.37748195 7.27228898 20.37434334 C7.28263017 23.62534948 7.2786246 26.87617937 7.2746582 30.12719727 C7.27900421 32.45473901 7.28418699 34.78227933 7.29014587 37.1098175 C7.30356317 43.44071189 7.3041112 49.77154668 7.30158257 56.10245252 C7.30037898 62.05634308 7.30658842 68.01022355 7.31201603 73.96411108 C7.32289666 86.48386567 7.32072739 99.00359334 7.31463119 111.52334946 C7.30946908 122.96144984 7.32069782 134.39946488 7.33972941 145.83754838 C7.35913509 157.59099518 7.36735855 169.34440166 7.36360615 181.09786457 C7.36179456 187.69280691 7.36441665 194.2876712 7.37832069 200.88260078 C7.39091739 207.09027326 7.38893729 213.29777555 7.37590981 219.50544548 C7.37354801 221.77937249 7.37626441 224.05331153 7.38453293 226.32722473 C7.39503622 229.44125096 7.38687056 232.55471004 7.3742218 235.66871643 C7.38159609 236.55999239 7.38897037 237.45126835 7.39656812 238.36955267 C7.22604404 258.4466913 -3.5445424 278.6362462 -17 293 C-22.94346838 298.82933974 -29.17710578 303.36074867 -36.515625 307.203125 C-37.24682556 307.58729584 -37.97802612 307.97146667 -38.73138428 308.36727905 C-47.35310099 312.81087958 -56.25930103 316.57950458 -65.19491577 320.33935547 C-69.44762044 322.1289842 -73.69307117 323.93554181 -77.93901062 325.7411499 C-80.18193596 326.69492989 -82.4251954 327.64792455 -84.66877747 328.60015869 C-97.37244991 333.99586886 -110.03038613 339.49617958 -122.6875 345 C-124.96179928 345.98819536 -127.23613166 346.97631457 -129.51049805 347.96435547 C-133.79398556 349.82537967 -138.0772657 351.68687975 -142.36035156 353.54882812 C-154.23525474 358.71071016 -166.11622529 363.85857675 -178 369 C-178.84105286 369.36391846 -179.68210571 369.72783691 -180.54864502 370.1027832 C-186.41593516 372.64137625 -192.28375091 375.17875014 -198.15206909 377.71496582 C-200.10556879 378.55935607 -202.05896157 379.40399373 -204.01223755 380.24890137 C-208.46962245 382.1768001 -212.92838871 384.10125322 -217.39160156 386.015625 C-220.18881177 387.21559261 -222.97768069 388.43070992 -225.75683594 389.671875 C-226.80387695 390.13078125 -227.85091797 390.5896875 -228.9296875 391.0625 C-229.78546387 391.44535156 -230.64124023 391.82820313 -231.52294922 392.22265625 C-234.47350509 393.14859454 -236.92432302 393.20089667 -240 393 C-243.4887619 391.14956654 -245.73975053 388.7807484 -247 385 C-247.09121697 383.66474713 -247.12907026 382.32541962 -247.13142776 380.98705673 C-247.13526891 380.16825271 -247.13911005 379.3494487 -247.1430676 378.50583243 C-247.14220112 377.60653896 -247.14133463 376.70724548 -247.14044189 375.78070068 C-247.14341302 374.82500254 -247.14638414 373.86930439 -247.1494453 372.8846457 C-247.15814829 369.66755452 -247.15964194 366.45050048 -247.16113281 363.23339844 C-247.16576011 360.9321993 -247.17078465 358.63100093 -247.17617798 356.32980347 C-247.18931854 350.06471124 -247.19575098 343.79962973 -247.20018864 337.53452587 C-247.20311866 333.61784661 -247.20722349 329.70117028 -247.21169281 325.78449249 C-247.22380767 314.92934654 -247.23418592 304.07420384 -247.2375679 293.21905136 C-247.23778747 292.5240739 -247.23800703 291.82909644 -247.23823325 291.11305906 C-247.23845153 290.41644752 -247.23866981 289.71983599 -247.2388947 289.00211501 C-247.23933816 287.59060271 -247.23978472 286.17909042 -247.24023438 284.76757812 C-247.2404558 284.0674242 -247.24067723 283.36727027 -247.24090537 282.64589956 C-247.24484469 271.32683953 -247.2622698 260.00784421 -247.2855939 248.68880913 C-247.30937598 237.05290036 -247.32151567 225.41702714 -247.32293582 213.78109384 C-247.32398155 207.25418893 -247.32983915 200.72737512 -247.34775543 194.20049286 C-247.36430547 188.05110567 -247.36635802 181.90187735 -247.35761642 175.75247574 C-247.35684957 173.50441435 -247.361142 171.25634418 -247.37107468 169.0083046 C-247.48974485 140.45741742 -240.96016482 115.95781934 -222 94 C-221.40960937 93.26523437 -220.81921875 92.53046875 -220.2109375 91.7734375 C-216.37988718 87.15987477 -212.15408545 83.25310393 -207.5 79.5 C-206.99774902 79.08564697 -206.49549805 78.67129395 -205.97802734 78.24438477 C-192.92461658 68.05554831 -177.77526062 62.27032933 -162.375 56.6875 C-160.25797692 55.90814024 -158.14145295 55.12742356 -156.02539062 54.34545898 C-151.58428139 52.70659057 -147.14052289 51.07523695 -142.69433594 49.45019531 C-133.03757113 45.91941555 -123.39819964 42.34180921 -113.75726318 38.76809692 C-110.48144611 37.55563273 -107.20404231 36.34754702 -103.92626953 35.14038086 C-91.05541274 30.39404432 -78.21716097 25.57146832 -65.40209961 20.67681694 C-60.46384804 18.79259024 -55.52234689 16.91689493 -50.58097839 15.04086018 C-45.73905813 13.20120623 -40.90305106 11.34696039 -36.07079697 9.48207569 C-33.04363474 8.31781554 -30.011319 7.16746976 -26.97751617 6.02063942 C-25.56537486 5.48353575 -24.15540481 4.94068157 -22.74788666 4.39157677 C-7.84324006 -1.41646975 -7.84324006 -1.41646975 0 0 Z " fill="#165C94" transform="translate(773,378)"/>
<path d="M0 0 C3.90216019 1.42968003 7.76158408 2.94388261 11.61914062 4.48876953 C13.10704594 5.07290723 14.59550621 5.65563301 16.08447266 6.23706055 C19.30385773 7.49588126 22.52040924 8.761616 25.73535156 10.03173828 C31.02246764 12.11664088 36.32313465 14.16554099 41.62695312 16.20751953 C42.53519333 16.55725327 43.44343353 16.906987 44.37919617 17.26731873 C46.23185554 17.98065538 48.08453203 18.69394756 49.93722534 19.40719604 C65.57691107 25.43355157 81.2033535 31.49484333 96.81689453 37.58862305 C104.58526865 40.61870737 112.36138057 43.62711792 120.14949036 46.60617065 C124.55330857 48.29154545 128.95475869 49.98305979 133.35610962 51.67486572 C135.49706163 52.49594143 137.63909881 53.31419432 139.78231812 54.1293335 C157.06137586 60.70287509 173.48681823 67.17847259 187.86914062 79.05126953 C188.64515625 79.66357422 189.42117188 80.27587891 190.22070312 80.90673828 C209.16901709 96.60772635 219.61741256 119.54721205 224.86914062 143.05126953 C225.04740198 143.75346902 225.22566334 144.45566851 225.40932655 145.17914677 C226.0711179 149.31287407 226.02072787 153.3914839 226.02304077 157.57164001 C226.02961415 159.01727564 226.02961415 159.01727564 226.03632033 160.49211603 C226.04968333 163.72399407 226.05588148 166.95584486 226.06201172 170.18774414 C226.06991436 172.50384138 226.07818342 174.81993739 226.08679199 177.1360321 C226.11298325 184.74188058 226.12831218 192.34773449 226.14257812 199.95361328 C226.14793813 202.57140163 226.15331564 205.18918995 226.15871048 207.80697823 C226.18033085 218.69224439 226.19922061 229.57750826 226.21033287 240.46279049 C226.21326243 243.28484539 226.21622412 246.10690026 226.21923828 248.92895508 C226.21998433 249.63033879 226.22073038 250.33172251 226.22149904 251.05436028 C226.23416175 262.42468539 226.26740113 273.79485447 226.30904011 285.16510659 C226.35145442 296.84284596 226.37461925 308.52049709 226.38025343 320.19831282 C226.38391177 326.75348065 226.39598563 333.30838346 226.42835617 339.86347771 C226.45835807 346.02689141 226.46477655 352.18987861 226.45297241 358.35334969 C226.45275105 360.61649284 226.46110749 362.87965535 226.47862625 365.14273071 C226.50122898 368.23030949 226.49306357 371.31632985 226.47714233 374.40391541 C226.49102442 375.30129156 226.50490651 376.19866771 226.51920927 377.12323707 C226.46469643 381.40789261 226.19868028 384.19166097 223.45614052 387.59172916 C219.90132373 390.97140282 217.95980657 391.35141885 213.04968262 391.27905273 C209.47709885 390.90585443 206.44081252 389.45727534 203.25976562 387.89501953 C202.54849014 387.56152496 201.83721466 387.2280304 201.10438538 386.88442993 C199.57162628 386.16383117 198.04208315 385.43635914 196.51553345 384.70269775 C193.2252363 383.12176288 189.91928652 381.57488616 186.6139679 380.02566528 C184.89775261 379.22093472 183.18233541 378.41450006 181.46769714 377.60641479 C173.0959285 373.6657145 164.64817909 369.90781226 156.18164062 366.17626953 C153.20952446 364.86288322 150.2383079 363.547476 147.26757812 362.23095703 C146.14088966 361.73166687 146.14088966 361.73166687 144.99143982 361.22229004 C135.40629864 356.967535 125.85774039 352.63174647 116.30664062 348.30126953 C104.96807545 343.16128747 93.62654836 338.03110139 82.24414062 332.98876953 C81.23061523 332.53816162 80.21708984 332.08755371 79.17285156 331.62329102 C74.14421491 329.3876953 69.11355435 327.15730266 64.07470703 324.94482422 C59.62223515 322.98934458 55.17537796 321.02147928 50.73101807 319.04763794 C48.97991308 318.27247515 47.22700095 317.50137892 45.47210693 316.73483276 C18.50896889 304.95023079 -1.96420678 289.79852388 -13.09179688 261.61767578 C-16.08766259 253.06017816 -17.42916594 244.90757089 -17.39828491 235.85333252 C-17.40281603 234.86503441 -17.40734714 233.87673629 -17.41201556 232.85848975 C-17.42461293 229.56755807 -17.42304224 226.27679287 -17.42138672 222.98583984 C-17.42737456 220.61826872 -17.4341807 218.25069955 -17.44174194 215.88313293 C-17.45937532 209.46823501 -17.46409599 203.05339047 -17.46537352 196.63847065 C-17.46636341 192.63104471 -17.47094027 188.62362542 -17.47636795 184.61620331 C-17.49395845 171.35835378 -17.50320932 158.10053652 -17.501707 144.84267524 C-17.50162709 144.12921155 -17.50154718 143.41574786 -17.50146484 142.68066406 C-17.50138308 141.96632697 -17.50130132 141.25198987 -17.50121708 140.5160062 C-17.50040302 128.92218532 -17.51957668 117.32849398 -17.54774158 105.7347106 C-17.57645575 93.82067154 -17.59028294 81.90669573 -17.58855402 69.99262118 C-17.58789 63.30738212 -17.59377755 56.62225993 -17.61491013 49.93704987 C-17.63422438 43.6562456 -17.63446363 37.37572961 -17.61987686 31.09491539 C-17.61777974 28.78782164 -17.62254307 26.48071014 -17.63459778 24.17364693 C-17.64996693 21.02917953 -17.64079709 17.88571675 -17.62533569 14.74127197 C-17.63562282 13.82425672 -17.64590995 12.90724146 -17.6565088 11.96243787 C-17.6110358 7.7901694 -17.48584256 5.61806504 -15.22495461 2.00814438 C-10.63011661 -2.28560634 -5.71450338 -1.73164068 0 0 Z " fill="#0D689E" transform="translate(261.130859375,378.94873046875)"/>
<path d="M0 0 C5.84269067 2.55970269 11.6914199 5.10554616 17.53961182 7.65264893 C18.14499912 7.91649761 18.75038643 8.1803463 19.3741188 8.4521904 C33.29564561 14.51926838 47.25574887 20.49549939 61.21929932 26.46514893 C78.88838795 34.02262859 96.54139932 41.61378099 114.144104 49.32476807 C115.64831287 49.98359315 117.15254424 50.64236685 118.65679932 51.30108643 C119.38062805 51.61809006 120.10445679 51.93509369 120.85021973 52.26170349 C125.96126997 54.49601784 131.08698378 56.69425009 136.21929932 58.87921143 C138.3092578 59.7721758 140.39902505 60.66558647 142.48876953 61.55905151 C144.39936838 62.37286217 146.31333903 63.17831078 148.2276001 63.98345947 C149.36181396 64.4685498 150.49602783 64.95364014 151.66461182 65.45343018 C152.64703857 65.86891113 153.62946533 66.28439209 154.6416626 66.71246338 C158.19110658 68.52181409 161.52450129 70.45055288 163.34429932 74.09014893 C163.61245032 77.64314974 163.58518578 80.39960774 162.40679932 83.77764893 C157.05659452 89.77636339 146.71683541 91.90139025 139.35211182 94.62530518 C138.19327484 95.05655197 137.03443787 95.48779877 135.84048462 95.93211365 C132.70270205 97.0992365 129.56401563 98.26386495 126.42489624 99.42738342 C123.12706784 100.65043769 119.83045719 101.87676516 116.53375244 103.10284424 C111.79551837 104.86474198 107.05692495 106.62566668 102.31784439 108.38528633 C94.22809297 111.3890447 86.14085735 114.39950407 78.05523682 117.41436768 C76.37741371 118.03995323 76.37741371 118.03995323 74.66569519 118.67817688 C72.46630342 119.49825679 70.26691672 120.31835031 68.0675354 121.13845825 C51.7983571 127.20395247 35.52506282 133.25808534 19.23883057 139.27764893 C16.35100457 140.34556567 13.46486884 141.41753473 10.58258057 142.50030518 C4.95745642 144.61231148 -0.67193333 146.71262344 -6.30755615 148.79644775 C-7.61295879 149.28019941 -8.91766026 149.76584777 -10.22161865 150.253479 C-25.32570121 155.89888299 -39.51413154 160.29404737 -55.77093506 160.38531494 C-57.17273157 160.39669732 -58.57448968 160.41692379 -59.97601318 160.44683838 C-78.23997093 160.8352947 -93.81294841 155.64269598 -110.65570068 149.02764893 C-112.47294346 148.3235316 -114.2905818 147.62043448 -116.10858154 146.91827393 C-119.96384287 145.42700718 -123.8163952 143.92902324 -127.66693115 142.42559814 C-133.72181878 140.06207125 -139.78390053 137.71739343 -145.84710693 135.37530518 C-161.68488394 129.2537228 -177.51076905 123.10164471 -193.32757568 116.92608643 C-194.17647873 116.59467651 -195.02538177 116.2632666 -195.90000916 115.92181396 C-200.06655508 114.29481733 -204.23240082 112.66606072 -208.39715576 111.03448486 C-217.5176686 107.46469431 -226.65399888 103.94029258 -235.80804443 100.45733643 C-238.85139333 99.29557326 -241.89449467 98.13316392 -244.93753052 96.97058105 C-246.89819118 96.22386046 -248.86010772 95.48042817 -250.82333374 94.74047852 C-253.54662104 93.71400305 -256.26552116 92.67660907 -258.98382568 91.63702393 C-259.79016953 91.33666229 -260.59651337 91.03630066 -261.42729187 90.72683716 C-266.43407972 88.79682283 -270.79223901 86.75223703 -273.96820068 82.21514893 C-274.93342587 79.23172563 -275.09352697 77.21747955 -274.65570068 74.09014893 C-270.52322492 67.5000334 -264.53557687 65.2695621 -257.59320068 62.21514893 C-256.34994769 61.6547415 -255.1072873 61.09301784 -253.86517334 60.53009033 C-250.50142243 59.01100264 -247.12899878 57.5122442 -243.75366211 56.019104 C-240.96560086 54.78458004 -238.18094054 53.54248301 -235.39611816 52.30067444 C-230.269186 50.01483167 -225.14013447 47.73383766 -220.0067749 45.46246338 C-208.04936599 40.17030001 -196.12812138 34.80075652 -184.21820068 29.40264893 C-180.66356594 27.79185538 -177.1088886 26.18115593 -173.55413818 24.57061768 C-172.70090469 24.18402985 -171.8476712 23.79744202 -170.96858215 23.3991394 C-160.03236303 18.44619837 -149.07459482 13.54179602 -138.11517334 8.64044189 C-134.44274905 6.99471894 -130.7735251 5.34201601 -127.10491943 3.68780518 C-78.03692906 -18.42837375 -50.26862198 -22.02597742 0 0 Z " fill="#1177B5" transform="translate(565.6557006835938,264.90985107421875)"/>
<path d="M0 0 C3.32475398 1.41905129 6.64865174 2.84009777 9.97241211 4.26147461 C10.90328392 4.65875511 11.83415573 5.05603561 12.79323578 5.46535492 C20.41203478 8.72525416 27.9589872 12.12350809 35.48065186 15.60055542 C48.22984931 21.49148528 61.02952606 27.25996088 73.875 32.9375 C86.131444 38.35648368 98.33368006 43.88166036 110.5 49.5 C123.45647444 55.48291585 136.45831425 61.35072277 149.50927734 67.12451172 C160.87462032 72.15305389 172.2045489 77.25307193 183.50866699 82.41772461 C191.56858319 86.09920279 199.64418472 89.74087073 207.75 93.3203125 C208.56585571 93.68094788 209.38171143 94.04158325 210.22229004 94.41314697 C214.17494132 96.15956448 218.12965779 97.90103658 222.08789062 99.63476562 C229.23927688 102.78101771 236.29096148 105.96844345 243 110 C239.87114209 123.58787953 226.43706954 134.50106777 215.19863892 141.68367004 C211.41087789 143.9514109 207.45274933 145.82184312 203.45703125 147.69140625 C202.54627335 148.12095108 201.63551544 148.55049591 200.69715881 148.99305725 C191.22062065 153.42565517 181.61986979 157.55909531 171.98916626 161.64331055 C167.74384013 163.44372247 163.50277515 165.25408054 159.26133728 167.06362915 C157.07165854 167.99769922 154.88176792 168.93127275 152.69166565 169.86434937 C141.71678182 174.54119448 130.76269864 179.26570567 119.8125 184 C117.96411523 184.79875579 116.1157266 185.59750261 114.26733398 186.39624023 C103.0278001 191.25416406 91.79235279 196.12148966 80.55834961 200.9921875 C69.98794883 205.57417241 59.41439056 210.14884495 48.83886719 214.71899414 C46.8892033 215.56165365 44.93965573 216.40458231 42.99023438 217.24780273 C38.53202377 219.17606378 34.07244135 221.10090097 29.60839844 223.015625 C26.81118823 224.21559261 24.02231931 225.43070992 21.24316406 226.671875 C20.19612305 227.13078125 19.14908203 227.5896875 18.0703125 228.0625 C17.21453613 228.44535156 16.35875977 228.82820312 15.47705078 229.22265625 C12.52649491 230.14859454 10.07567698 230.20089667 7 230 C3.5112381 228.14956654 1.26024947 225.7807484 0 222 C-0.09422445 219.06241207 -0.13026178 216.14884676 -0.12025452 213.21125793 C-0.12110894 212.30214604 -0.12196337 211.39303414 -0.12284368 210.45637339 C-0.12449612 207.397735 -0.11898093 204.33915096 -0.11352539 201.28051758 C-0.11324344 199.09291078 -0.1134014 196.90530389 -0.1139679 194.71769714 C-0.11425557 188.76764308 -0.10836364 182.81760906 -0.10139394 176.86755967 C-0.09515545 170.65354402 -0.09455621 164.43952794 -0.09336853 158.22550964 C-0.09061055 147.79201923 -0.08435838 137.3585357 -0.07543945 126.92504883 C-0.06626201 116.17797889 -0.0591828 105.43091095 -0.05493164 94.68383789 C-0.05453756 93.69035062 -0.05453756 93.69035062 -0.05413551 92.6767929 C-0.05283048 89.35414099 -0.05156902 86.03148908 -0.05032361 82.70883715 C-0.03986253 55.13921963 -0.0222659 27.56961033 0 0 Z " fill="#1A4676" transform="translate(526,541)"/>
<path d="M0 0 C0.14006927 28.72839444 0.24592177 57.45673783 0.31087303 86.18540478 C0.34183066 99.52420047 0.38404794 112.86275876 0.45263672 126.20141602 C0.5123799 137.82537023 0.55113527 149.44917096 0.56453097 161.07327443 C0.57236323 167.23005979 0.59081113 173.38640597 0.63438034 179.54305077 C0.67504055 185.33544531 0.68768212 191.12721889 0.67864609 196.91974258 C0.68029966 199.04786488 0.69227331 201.17600749 0.71523285 203.30400658 C0.74501651 206.20634277 0.73793675 209.10632394 0.7215271 212.00871277 C0.73900415 212.85404813 0.7564812 213.6993835 0.77448785 214.57033509 C0.68993916 220.08919122 0.68993916 220.08919122 -1.24692035 222.64609587 C-4.14762642 225.22871011 -6.02629765 226.00343786 -9.89941406 226.50976562 C-14.17339082 226.21658009 -17.79924275 224.71495826 -21.609375 222.84375 C-22.67628822 222.34350815 -22.67628822 222.34350815 -23.76475525 221.8331604 C-25.29751435 221.11256164 -26.82705747 220.38508961 -28.35360718 219.65142822 C-31.64390432 218.07049334 -34.94985411 216.52361663 -38.25517273 214.97439575 C-39.97138801 214.16966518 -41.68680521 213.36323053 -43.40144348 212.55514526 C-51.77321212 208.61444497 -60.22096154 204.85654273 -68.6875 201.125 C-71.65961616 199.81161369 -74.63083272 198.49620647 -77.6015625 197.1796875 C-78.72825096 196.68039734 -78.72825096 196.68039734 -79.87770081 196.17102051 C-89.46284198 191.91626546 -99.01140023 187.58047694 -108.5625 183.25 C-119.90106517 178.11001794 -131.24259226 172.97983186 -142.625 167.9375 C-143.63852539 167.48689209 -144.65205078 167.03628418 -145.69628906 166.57202148 C-150.72492572 164.33642577 -155.75558627 162.10603313 -160.79443359 159.89355469 C-165.24690547 157.93807504 -169.69376266 155.97020975 -174.13812256 153.99636841 C-175.88922754 153.22120562 -177.64213968 152.45010939 -179.39703369 151.68356323 C-200.40357943 142.50237 -219.23834537 131.36638057 -231 111 C-231.73828125 108.62109375 -231.73828125 108.62109375 -232 107 C-223.05140931 102.41598079 -214.06042122 98.02550608 -204.82080078 94.0546875 C-200.25804792 92.07395758 -195.81132675 89.91880161 -191.37109375 87.67578125 C-184.72393122 84.31914136 -177.97978054 81.20038561 -171.18756104 78.1489563 C-167.60225484 76.53748869 -164.02176728 74.91538766 -160.44140625 73.29296875 C-159.30279144 72.77711464 -159.30279144 72.77711464 -158.14117432 72.25083923 C-148.94348329 68.07682642 -139.78502118 63.81836597 -130.625 59.5625 C-117.9347293 53.66819332 -105.23179022 47.80409344 -92.5 42 C-79.62431289 36.12945607 -66.77438666 30.20490788 -53.9375 24.25 C-52.63380463 23.64526855 -52.63380463 23.64526855 -51.30377197 23.02832031 C-47.90293546 21.45069565 -44.50218862 19.87287792 -41.1015625 18.2947998 C-33.69515072 14.85790768 -26.28662471 11.42563583 -18.875 8 C-17.33960571 7.2889209 -17.33960571 7.2889209 -15.77319336 6.56347656 C-1.56412059 0 -1.56412059 0 0 0 Z " fill="#154C7B" transform="translate(486,544)"/>
<path d="M0 0 C0.99 0.33 1.98 0.66 3 1 C2.0409375 1.7734375 2.0409375 1.7734375 1.0625 2.5625 C-1.55791681 5.65935623 -1.69389817 8.02067623 -2 12 C-2.66 11.67 -3.32 11.34 -4 11 C-4.36630156 7.06225823 -4.30233203 5.43460229 -2 2.125 C-1.34 1.42375 -0.68 0.7225 0 0 Z " fill="#2281BA" transform="translate(295,334)"/>
</svg>
