<?xml version="1.0" encoding="UTF-8"?>
<svg version="1.1" xmlns="http://www.w3.org/2000/svg" width="1024" height="1024">
<path d="M0 0 C337.92 0 675.84 0 1024 0 C1024 337.92 1024 675.84 1024 1024 C686.08 1024 348.16 1024 0 1024 C0 686.08 0 348.16 0 0 Z " fill="#1E3058" transform="translate(0,0)"/>
<path d="M0 0 C0.72767578 -0.02900391 1.45535156 -0.05800781 2.20507812 -0.08789062 C18.23545769 -0.2631597 32.90701144 6.37944215 47.25 12.75 C49.12749054 13.57087674 51.00559315 14.39035487 52.88427734 15.20849609 C56.60600227 16.83162511 60.32440362 18.46196926 64.03955078 20.10009766 C70.40955036 22.90863349 76.79790614 25.67384944 83.1875 28.4375 C84.3221167 28.93040527 85.4567334 29.42331055 86.62573242 29.93115234 C98.52989948 35.1015995 110.46495358 40.1998707 122.39675903 45.30612183 C145.67527451 55.26895204 168.92003607 65.30638711 192.13217163 75.42301941 C203.42795675 80.3452598 214.7308696 85.2510782 226.03408813 90.15621948 C229.46582914 91.64554622 232.89735336 93.13537156 236.32885742 94.62524414 C237.93452576 95.32207054 237.93452576 95.32207054 239.57263184 96.03297424 C241.64054577 96.93048042 243.70826016 97.8284465 245.77575684 98.72691345 C250.00196333 100.56157458 254.22965444 102.39043039 258.4777832 104.17382812 C259.44300903 104.58044174 259.44300903 104.58044174 260.42773438 104.99526978 C262.03571137 105.67027041 263.64624875 106.33916381 265.25708008 107.00732422 C284.71010943 116.05752828 298.78712758 132.86000119 307.0625 152.3125 C310.22193386 161.08016905 312.15388451 169.25932565 312.26782227 178.59912109 C312.28265467 179.67866027 312.28265467 179.67866027 312.29778671 180.78000832 C312.32969452 183.21528464 312.35448327 185.65057528 312.37890625 188.0859375 C312.39988619 189.88175684 312.42106715 191.67757383 312.44242859 193.47338867 C312.51196298 199.54468201 312.56892194 205.61606983 312.625 211.6875 C312.63504562 212.73716194 312.64509125 213.78682388 312.65544128 214.86829376 C313.09564524 260.9441768 313.23294691 307.02219124 313.29769701 353.09993064 C313.30776107 359.77634079 313.32543688 366.45270478 313.34622192 373.12908936 C313.37167358 381.37811628 313.38585915 389.62707571 313.38633865 397.87614322 C313.38682458 402.14736834 313.39201933 406.41844623 313.41010094 410.68963623 C313.42666445 414.65500915 313.42874209 418.62013683 313.42008102 422.58553243 C313.4193428 424.01880356 313.42356849 425.45208887 313.43358433 426.88532519 C313.59758848 451.83097192 305.54080756 474.31666516 288.0625 492.3125 C277.60855052 502.16908094 265.39729506 508.45479354 252.23583984 513.93338013 C248.40112421 515.53045758 244.57881769 517.15696203 240.75390625 518.77734375 C239.915784 519.13146835 239.07766174 519.48559296 238.21414185 519.85044861 C228.08996922 524.13347161 218.01260041 528.52405637 207.93234253 532.90917969 C202.22674436 535.39101129 196.51972162 537.86956062 190.8125 540.34765625 C189.66728378 540.84492218 188.52206757 541.34218811 187.34214783 541.85452271 C174.37424551 547.48290268 161.39172073 553.07728393 148.40896606 558.67129517 C133.05165208 565.2891617 117.70653509 571.93457829 102.3692627 578.59875488 C85.60547313 585.88162872 68.84008688 593.16107494 52.05032349 600.38391113 C50.25149774 601.15827661 48.45320171 601.93387399 46.65548706 602.71081543 C44.19372955 603.77434948 41.72997756 604.83312063 39.265625 605.890625 C38.56182205 606.19577026 37.8580191 606.50091553 37.13288879 606.81530762 C15.42968728 616.08935357 -7.61348378 617.35441113 -29.9375 609.3125 C-37.00224217 606.46626391 -43.84698412 603.15097313 -50.70654297 599.84814453 C-56.23984437 597.21821663 -61.84055276 594.7408145 -67.4375 592.25 C-69.8856652 591.15549877 -72.33360718 590.06051142 -74.78125 588.96484375 C-75.41978409 588.67918549 -76.05831818 588.39352722 -76.71620178 588.09921265 C-84.59689695 584.57250104 -92.46880097 581.02624974 -100.34136963 577.48144531 C-120.47021671 568.41814029 -140.60859615 559.37640441 -160.76171875 550.3671875 C-183.11860902 540.37245099 -205.46781337 530.36087133 -227.78741455 520.28308105 C-229.80573394 519.37198119 -231.8244586 518.46178521 -233.84326172 517.55175781 C-237.14775242 516.06022613 -240.44949484 514.56282611 -243.75 513.0625 C-244.64895996 512.65725098 -245.54791992 512.25200195 -246.47412109 511.83447266 C-255.39670362 507.7591477 -264.06518052 503.72874039 -271.1875 496.875 C-271.68926758 496.39401855 -272.19103516 495.91303711 -272.70800781 495.41748047 C-274.12420925 494.05574831 -275.53119772 492.68445294 -276.9375 491.3125 C-277.6078125 490.71566406 -278.278125 490.11882812 -278.96875 489.50390625 C-292.68104627 477.00701806 -299.9978882 456.70374052 -301.1069591 438.53668785 C-301.39559078 430.65106602 -301.3569963 422.76272132 -301.34155273 414.87304688 C-301.34726415 412.22671901 -301.35413242 409.58041628 -301.36235046 406.93409729 C-301.37943471 400.52733786 -301.38040042 394.12067695 -301.37513756 387.71390069 C-301.37107595 382.50130926 -301.37256287 377.28874669 -301.37788582 372.07615662 C-301.37863424 371.33082113 -301.37938266 370.58548563 -301.38015376 369.81756422 C-301.38168542 368.30285346 -301.38322377 366.7881427 -301.38476873 365.27343196 C-301.39845564 351.110566 -301.39308247 336.94775548 -301.38158352 322.78489083 C-301.37165007 309.86037583 -301.38460051 296.93600396 -301.40851771 284.01151103 C-301.43296436 270.69936631 -301.44250326 257.3872881 -301.43586498 244.0751214 C-301.43238575 236.61778249 -301.43451888 229.16055361 -301.45211601 221.70323181 C-301.4669077 215.3568567 -301.46738301 209.01066917 -301.4500451 202.66429746 C-301.4415904 199.43379383 -301.4414561 196.20368951 -301.45469666 192.97319221 C-301.55761678 165.77201499 -296.60857521 143.14310771 -277.31640625 122.67578125 C-260.53374225 106.00334821 -237.8192159 98.01963369 -216.51275635 88.65878296 C-206.80863612 84.38772658 -197.1552586 80.00509414 -187.5 75.625 C-183.93118893 74.00737241 -180.36211942 72.39031564 -176.79296875 70.7734375 C-175.93741898 70.38580231 -175.0818692 69.99816711 -174.20039368 69.5987854 C-165.78514556 65.78752896 -157.35630898 62.00715812 -148.92407227 58.23364258 C-139.46098695 53.99810302 -130.00551325 49.74581873 -120.55175781 45.48950195 C-90.71567421 32.05657713 -90.71567421 32.05657713 -79.91967773 27.23461914 C-73.85083817 24.52304639 -67.79100638 21.79401605 -61.74371338 19.03477478 C-58.33796644 17.48244319 -54.92871693 15.9378919 -51.519104 14.39407349 C-49.8683794 13.64438223 -48.21918594 12.89130833 -46.57171631 12.13449097 C-31.29740007 5.12066189 -16.98554764 0.21537043 0 0 Z " fill="#FDFEFE" transform="translate(505.9375,204.6875)"/>
<path d="M0 0 C3.66131345 2.13576618 5.38144315 4.14752277 7 8 C7.251849 10.01019961 7.251849 10.01019961 7.25447559 12.17839909 C7.26030779 13.00862774 7.26613998 13.83885639 7.27214891 14.69424349 C7.26836958 15.6011345 7.26459026 16.50802551 7.26069641 17.44239807 C7.26452196 18.40994001 7.26834751 19.37748195 7.27228898 20.37434334 C7.28263017 23.62534948 7.2786246 26.87617937 7.2746582 30.12719727 C7.27900421 32.45473901 7.28418699 34.78227933 7.29014587 37.1098175 C7.30356317 43.44071189 7.3041112 49.77154668 7.30158257 56.10245252 C7.30037898 62.05634308 7.30658842 68.01022355 7.31201603 73.96411108 C7.32289666 86.48386567 7.32072739 99.00359334 7.31463119 111.52334946 C7.30946908 122.96144984 7.32069782 134.39946488 7.33972941 145.83754838 C7.35913509 157.59099518 7.36735855 169.34440166 7.36360615 181.09786457 C7.36179456 187.69280691 7.36441665 194.2876712 7.37832069 200.88260078 C7.39091739 207.09027326 7.38893729 213.29777555 7.37590981 219.50544548 C7.37354801 221.77937249 7.37626441 224.05331153 7.38453293 226.32722473 C7.39503622 229.44125096 7.38687056 232.55471004 7.3742218 235.66871643 C7.38159609 236.55999239 7.38897037 237.45126835 7.39656812 238.36955267 C7.22604404 258.4466913 -3.5445424 278.6362462 -17 293 C-32.49121868 308.19375067 -53.3062551 315.27186331 -72.93478394 323.57037354 C-83.20025431 327.91888263 -93.41857984 332.37595903 -103.64120483 336.82400513 C-121.72195248 344.69035365 -139.82020081 352.5134632 -157.95175171 360.26196289 C-174.24179971 367.2250907 -190.49062906 374.28156479 -206.72827148 381.3659668 C-211.07745538 383.26339569 -215.4306254 385.1514329 -219.78552246 387.03570557 C-221.78452137 387.90616981 -223.77643717 388.79073013 -225.76660156 389.68115234 C-226.81557617 390.14086426 -227.86455078 390.60057617 -228.9453125 391.07421875 C-229.79883301 391.45537842 -230.65235352 391.83653809 -231.53173828 392.22924805 C-234.47749164 393.14910397 -236.93057323 393.19961576 -240 393 C-243.4887619 391.14956654 -245.73975053 388.7807484 -247 385 C-247.09121697 383.66474713 -247.12907026 382.32541962 -247.13142776 380.98705673 C-247.13526891 380.16825271 -247.13911005 379.3494487 -247.1430676 378.50583243 C-247.14220112 377.60653896 -247.14133463 376.70724548 -247.14044189 375.78070068 C-247.14341302 374.82500254 -247.14638414 373.86930439 -247.1494453 372.8846457 C-247.15814829 369.66755452 -247.15964194 366.45050048 -247.16113281 363.23339844 C-247.16576011 360.9321993 -247.17078465 358.63100093 -247.17617798 356.32980347 C-247.18931854 350.06471124 -247.19575098 343.79962973 -247.20018864 337.53452587 C-247.20311866 333.61784661 -247.20722349 329.70117028 -247.21169281 325.78449249 C-247.22380767 314.92934654 -247.23418592 304.07420384 -247.2375679 293.21905136 C-247.23778747 292.5240739 -247.23800703 291.82909644 -247.23823325 291.11305906 C-247.23845153 290.41644752 -247.23866981 289.71983599 -247.2388947 289.00211501 C-247.23933816 287.59060271 -247.23978472 286.17909042 -247.24023438 284.76757812 C-247.2404558 284.0674242 -247.24067723 283.36727027 -247.24090537 282.64589956 C-247.24484469 271.32683953 -247.2622698 260.00784421 -247.2855939 248.68880913 C-247.30937598 237.05290036 -247.32151567 225.41702714 -247.32293582 213.78109384 C-247.32398155 207.25418893 -247.32983915 200.72737512 -247.34775543 194.20049286 C-247.36430547 188.05110567 -247.36635802 181.90187735 -247.35761642 175.75247574 C-247.35684957 173.50441435 -247.361142 171.25634418 -247.37107468 169.0083046 C-247.48974485 140.45741742 -240.96016482 115.95781934 -222 94 C-221.40960937 93.26523437 -220.81921875 92.53046875 -220.2109375 91.7734375 C-216.37988718 87.15987477 -212.15408545 83.25310393 -207.5 79.5 C-206.99774902 79.08564697 -206.49549805 78.67129395 -205.97802734 78.24438477 C-192.92461658 68.05554831 -177.77526062 62.27032933 -162.375 56.6875 C-160.25797692 55.90814024 -158.14145295 55.12742356 -156.02539062 54.34545898 C-151.58428139 52.70659057 -147.14052289 51.07523695 -142.69433594 49.45019531 C-133.03757113 45.91941555 -123.39819964 42.34180921 -113.75726318 38.76809692 C-110.48144611 37.55563273 -107.20404231 36.34754702 -103.92626953 35.14038086 C-91.05541274 30.39404432 -78.21716097 25.57146832 -65.40209961 20.67681694 C-60.46384804 18.79259024 -55.52234689 16.91689493 -50.58097839 15.04086018 C-45.73905813 13.20120623 -40.90305106 11.34696039 -36.07079697 9.48207569 C-33.04363474 8.31781554 -30.011319 7.16746976 -26.97751617 6.02063942 C-25.56537486 5.48353575 -24.15540481 4.94068157 -22.74788666 4.39157677 C-7.84324006 -1.41646975 -7.84324006 -1.41646975 0 0 Z " fill="#18A2F7" transform="translate(773,378)"/>
<path d="M0 0 C2.30918901 0.79104862 4.57230354 1.65814245 6.83898926 2.56381226 C8.1072908 3.05208244 8.1072908 3.05208244 9.4012146 3.55021667 C12.14079102 4.60849088 14.87257079 5.68547683 17.60461426 6.76303101 C19.49918564 7.4990489 21.3942089 8.23390464 23.28967285 8.96762085 C27.96592578 10.7815202 32.63600324 12.61066771 37.3034668 14.447052 C39.63446022 15.3639347 41.96640183 16.27833539 44.2989502 17.19125366 C50.25092079 19.52089187 56.19931262 21.8593609 62.14367676 24.20834351 C67.30772688 26.24409027 72.49402196 28.20548827 77.69909668 30.13388062 C84.9192516 32.8230906 92.07780522 35.66907593 99.24230957 38.50253296 C106.40870513 41.33229668 113.58926277 44.12221242 120.78504944 46.8764801 C125.13504884 48.54158534 129.48282568 50.21246112 133.83071899 51.88305664 C135.98706832 52.70964482 138.14449553 53.53342739 140.30307007 54.35418701 C157.74040732 60.98647059 174.3402539 67.46873499 188.85461426 79.45053101 C189.63062988 80.06283569 190.40664551 80.67514038 191.20617676 81.30599976 C211.31625608 97.96965206 223.37496995 123.93924976 226.85461426 149.45053101 C227.00258698 152.65151496 227.0067281 155.84917662 227.0085144 159.05319214 C227.01508779 160.49398408 227.01508779 160.49398408 227.02179396 161.96388292 C227.03513681 165.17883537 227.04135052 168.39376043 227.04748535 171.60873413 C227.0553895 173.91512678 227.06365865 176.2215182 227.07226562 178.52790833 C227.09843649 186.09585395 227.11378241 193.66380499 227.12805176 201.23178101 C227.13341234 203.83749902 227.13878986 206.44321699 227.14418411 209.04893494 C227.16580027 219.88362932 227.18469011 230.71832141 227.1958065 241.55303192 C227.19873599 244.36082463 227.2016977 247.1686173 227.20471191 249.97640991 C227.20545796 250.67423751 227.20620402 251.37206511 227.20697267 252.091039 C227.21963826 263.40633539 227.25288308 274.72147509 227.29451375 286.03669816 C227.33692784 297.66022861 227.36009272 309.28367042 227.36572707 320.90727758 C227.36938508 327.43113193 227.38145581 333.95471997 227.4138298 340.47850037 C227.44383125 346.61155922 227.45025035 352.74418947 227.43844604 358.87730598 C227.43822469 361.12916217 227.44658066 363.38103781 227.46409988 365.63282585 C227.48670348 368.70502695 227.4785369 371.77566194 227.46261597 374.84786987 C227.47649805 375.74067296 227.49038014 376.63347604 227.5046829 377.55333376 C227.45002824 381.82793912 227.17735035 384.59671079 224.44161415 387.98819733 C220.88730982 391.37122154 218.94702096 391.75070598 214.03515625 391.67831421 C210.46257248 391.3051159 207.42628615 389.85653681 204.24523926 388.29428101 C203.53396378 387.96078644 202.82268829 387.62729187 202.08985901 387.28369141 C200.55709991 386.56309264 199.02755679 385.83562061 197.50100708 385.10195923 C194.21070993 383.52102435 190.90476015 381.97414763 187.59944153 380.42492676 C185.88322625 379.62019619 184.16780904 378.81376153 182.45317078 378.00567627 C174.08140214 374.06497598 165.63365272 370.30707374 157.16711426 366.57553101 C154.19499809 365.26214469 151.22378153 363.94673747 148.25305176 362.63021851 C147.1263633 362.13092834 147.1263633 362.13092834 145.97691345 361.62155151 C136.39177313 357.36679685 126.84317971 353.03108195 117.29211426 348.70053101 C105.99601071 343.57940842 94.69639224 338.46987105 83.35461426 333.45053101 C80.15742182 332.03023877 76.96076268 330.608753 73.76428223 329.18685913 C70.78843821 327.86400018 67.81028511 326.54642345 64.83166504 325.22982788 C60.13308194 323.15166608 55.44029936 321.06077272 50.75012207 318.9637146 C48.88908682 318.13391484 47.02633805 317.30794543 45.16174316 316.48617554 C18.60696517 304.775504 -1.14524568 289.77608896 -12.10632324 262.01693726 C-15.10218896 253.45943963 -16.4436923 245.30683236 -16.41281128 236.25259399 C-16.41734239 235.26429588 -16.42187351 234.27599777 -16.42654192 233.25775123 C-16.4391393 229.96681955 -16.43756861 226.67605434 -16.43591309 223.38510132 C-16.44190093 221.0175302 -16.44870707 218.64996103 -16.45626831 216.28239441 C-16.47390169 209.86749648 -16.47862236 203.45265194 -16.47989988 197.03773212 C-16.48088978 193.03030619 -16.48546664 189.0228869 -16.49089432 185.01546478 C-16.50848481 171.75761525 -16.51773569 158.499798 -16.51623337 145.24193671 C-16.51615346 144.52847303 -16.51607354 143.81500934 -16.51599121 143.07992554 C-16.51590945 142.36558844 -16.51582769 141.65125135 -16.51574345 140.91526768 C-16.51492938 129.3214468 -16.53410305 117.72775546 -16.56226794 106.13397208 C-16.59098212 94.21993302 -16.60480931 82.30595721 -16.60308039 70.39188266 C-16.60241637 63.70664359 -16.60830392 57.0215214 -16.62943649 50.33631134 C-16.64875075 44.05550708 -16.64899 37.77499109 -16.63440323 31.49417686 C-16.6323061 29.18708311 -16.63706943 26.87997161 -16.64912415 24.5729084 C-16.6644933 21.42844101 -16.65532346 18.28497823 -16.63986206 15.14053345 C-16.65014919 14.22351819 -16.66043631 13.30650294 -16.67103517 12.36169934 C-16.62556216 8.18943088 -16.50036893 6.01732652 -14.23948097 2.40740585 C-10.09931512 -1.46146616 -5.30242554 -1.35803943 0 0 Z " fill="#5DBBFF" transform="translate(260.1453857421875,378.5494689941406)"/>
<path d="M0 0 C5.84269067 2.55970269 11.6914199 5.10554616 17.53961182 7.65264893 C18.14499912 7.91649761 18.75038643 8.1803463 19.3741188 8.4521904 C33.29564653 14.51926879 47.25580472 20.49536706 61.21929932 26.46514893 C78.83948777 34.00243258 96.45075117 41.55826595 114.00128174 49.25665283 C115.50754091 49.91731355 117.01380709 50.57795832 118.52008057 51.23858643 C119.24819443 51.5580423 119.97630829 51.87749817 120.72648621 52.20663452 C125.2628065 54.19247523 129.81152395 56.14665983 134.37088013 58.07901001 C137.38355434 59.35671107 140.39202187 60.64414617 143.40020752 61.93237305 C144.79977806 62.52840479 146.20142337 63.11959259 147.60528564 63.70544434 C149.51730123 64.50363552 151.4214448 65.31836644 153.32476807 66.13702393 C154.3962207 66.5891626 155.46767334 67.04130127 156.57159424 67.50714111 C159.7310727 69.31096768 161.36022082 71.05681222 163.34429932 74.09014893 C163.99472556 78.56182936 163.63195721 81.8181824 160.98291016 85.56201172 C157.14266343 89.14335255 151.70987755 90.49152008 146.85211182 92.22296143 C145.57133829 92.69554323 144.29122081 93.1699063 143.01171875 93.6459198 C139.5594755 94.92479095 136.09882764 96.17929647 132.63619232 97.42970657 C128.98549772 98.75298841 125.34328392 100.09920717 121.70025635 101.44342041 C115.75293086 103.63507457 109.80133851 105.81469432 103.84625244 107.98516846 C96.3099121 110.73272536 88.78509902 113.51006814 81.26617432 116.30499268 C80.17270691 116.71136963 79.0792395 117.11774658 77.95263672 117.53643799 C75.78194709 118.3431807 73.61127227 119.14996326 71.44061279 119.95678711 C66.02539268 121.96710216 60.60654098 123.96757881 55.18804932 125.96905518 C45.71312545 129.46996221 36.24309094 132.98384193 26.77578354 136.50527763 C24.63440784 137.30169801 22.49292897 138.09784029 20.35140991 138.89387512 C19.64861845 139.15511516 18.94582699 139.41635519 18.22173882 139.68551159 C16.80857149 140.2108012 15.39540037 140.73608059 13.98222542 141.26134968 C10.53886469 142.54137638 7.095783 143.82214365 3.65332031 145.10458374 C1.05303672 146.07327973 -1.54762417 147.04094863 -4.14874268 148.00740051 C-6.50699261 148.88362802 -8.86470565 149.76130262 -11.22174072 150.64079285 C-26.46046026 156.29583805 -39.79460562 160.46461454 -56.14813232 160.46075439 C-58.19124123 160.46509169 -60.23211733 160.50142539 -62.27484131 160.53936768 C-79.56702624 160.69592682 -94.7354717 155.28037189 -110.65570068 149.02764893 C-112.47294346 148.3235316 -114.2905818 147.62043448 -116.10858154 146.91827393 C-119.96384287 145.42700718 -123.8163952 143.92902324 -127.66693115 142.42559814 C-133.72181878 140.06207125 -139.78390053 137.71739343 -145.84710693 135.37530518 C-161.68488394 129.2537228 -177.51076905 123.10164471 -193.32757568 116.92608643 C-194.17647873 116.59467651 -195.02538177 116.2632666 -195.90000916 115.92181396 C-200.06655508 114.29481733 -204.23240082 112.66606072 -208.39715576 111.03448486 C-217.5176686 107.46469431 -226.65399888 103.94029258 -235.80804443 100.45733643 C-238.85139333 99.29557326 -241.89449467 98.13316392 -244.93753052 96.97058105 C-246.89819118 96.22386046 -248.86010772 95.48042817 -250.82333374 94.74047852 C-253.54662104 93.71400305 -256.26552116 92.67660907 -258.98382568 91.63702393 C-259.79016953 91.33666229 -260.59651337 91.03630066 -261.42729187 90.72683716 C-266.43407972 88.79682283 -270.79223901 86.75223703 -273.96820068 82.21514893 C-274.93342587 79.23172563 -275.09352697 77.21747955 -274.65570068 74.09014893 C-270.52322492 67.5000334 -264.53557687 65.2695621 -257.59320068 62.21514893 C-256.34994769 61.6547415 -255.1072873 61.09301784 -253.86517334 60.53009033 C-250.50142243 59.01100264 -247.12899878 57.5122442 -243.75366211 56.019104 C-240.96560086 54.78458004 -238.18094054 53.54248301 -235.39611816 52.30067444 C-230.269186 50.01483167 -225.14013447 47.73383766 -220.0067749 45.46246338 C-208.04936599 40.17030001 -196.12812138 34.80075652 -184.21820068 29.40264893 C-180.66356594 27.79185538 -177.1088886 26.18115593 -173.55413818 24.57061768 C-172.70090469 24.18402985 -171.8476712 23.79744202 -170.96858215 23.3991394 C-160.03236303 18.44619837 -149.07459482 13.54179602 -138.11517334 8.64044189 C-134.44274905 6.99471894 -130.7735251 5.34201601 -127.10491943 3.68780518 C-78.03692906 -18.42837375 -50.26862198 -22.02597742 0 0 Z " fill="#1FB1F5" transform="translate(565.6557006835938,264.90985107421875)"/>
<path d="M0 0 C4.06139618 1.61217314 8.06839469 3.32633158 12.0625 5.09765625 C12.75413239 5.40384384 13.44576477 5.71003143 14.15835571 6.02549744 C16.43954312 7.03639744 18.7198712 8.04921467 21 9.0625 C21.78622742 9.41159424 22.57245483 9.76068848 23.38250732 10.12036133 C37.33642703 16.32054162 51.22737087 22.65250467 65.0859375 29.06274414 C74.73005775 33.52056215 84.41547049 37.87585028 94.13220215 42.17303467 C97.78189421 43.78893159 101.42315165 45.42347039 105.0625 47.0625 C106.25153931 47.59750122 106.25153931 47.59750122 107.46459961 48.14331055 C112.86742069 50.57806686 118.26321349 53.02804705 123.65625 55.484375 C126.45831169 56.76046421 129.26038682 58.03652386 132.0625 59.3125 C132.77514008 59.63704163 133.48778015 59.96158325 134.22201538 60.29595947 C144.66384197 65.04942823 155.13295758 69.73627581 165.62646484 74.37475586 C175.59119409 78.79189117 185.49583063 83.33639456 195.39782715 87.89187622 C203.66794606 91.69445192 211.95612361 95.44385895 220.30859375 99.0625 C221.0559227 99.38662872 221.80325165 99.71075745 222.57322693 100.04470825 C226.14890989 101.59333954 229.72826432 103.13265754 233.31323242 104.65966797 C234.58648562 105.20786884 235.85968228 105.75620107 237.1328125 106.3046875 C238.24543457 106.77890137 239.35805664 107.25311523 240.50439453 107.74169922 C243 109 243 109 244 111 C231.24025449 137.11832383 205.01934573 147.57935091 179.890625 158.125 C167.8216593 163.2112116 155.79954355 168.39965686 143.79202271 173.6289978 C125.56940849 181.56398485 107.32717545 189.45074733 89.05072021 197.26086426 C72.75985437 204.22437197 56.51019704 211.28120437 40.27172852 218.3659668 C35.92254462 220.26339569 31.5693746 222.1514329 27.21447754 224.03570557 C25.21547863 224.90616981 23.22356283 225.79073013 21.23339844 226.68115234 C20.18442383 227.14086426 19.13544922 227.60057617 18.0546875 228.07421875 C17.20116699 228.45537842 16.34764648 228.83653809 15.46826172 229.22924805 C12.52250836 230.14910397 10.06942677 230.19961576 7 230 C3.5112381 228.14956654 1.26024947 225.7807484 0 222 C-0.09422445 219.06241207 -0.13026178 216.14884676 -0.12025452 213.21125793 C-0.12110894 212.30214604 -0.12196337 211.39303414 -0.12284368 210.45637339 C-0.12449612 207.397735 -0.11898093 204.33915096 -0.11352539 201.28051758 C-0.11324344 199.09291078 -0.1134014 196.90530389 -0.1139679 194.71769714 C-0.11425557 188.76764308 -0.10836364 182.81760906 -0.10139394 176.86755967 C-0.09515545 170.65354402 -0.09455621 164.43952794 -0.09336853 158.22550964 C-0.09061055 147.79201923 -0.08435838 137.3585357 -0.07543945 126.92504883 C-0.06626201 116.17797889 -0.0591828 105.43091095 -0.05493164 94.68383789 C-0.05453756 93.69035062 -0.05453756 93.69035062 -0.05413551 92.6767929 C-0.05283048 89.35414099 -0.05156902 86.03148908 -0.05032361 82.70883715 C-0.03986253 55.13921963 -0.0222659 27.56961033 0 0 Z " fill="#3492FC" transform="translate(526,541)"/>
<path d="M0 0 C0.14006927 28.72839444 0.24592177 57.45673783 0.31087303 86.18540478 C0.34183066 99.52420047 0.38404794 112.86275876 0.45263672 126.20141602 C0.5123799 137.82537023 0.55113527 149.44917096 0.56453097 161.07327443 C0.57236323 167.23005979 0.59081113 173.38640597 0.63438034 179.54305077 C0.67504055 185.33544531 0.68768212 191.12721889 0.67864609 196.91974258 C0.68029966 199.04786488 0.69227331 201.17600749 0.71523285 203.30400658 C0.74501651 206.20634277 0.73793675 209.10632394 0.7215271 212.00871277 C0.73900415 212.85404813 0.7564812 213.6993835 0.77448785 214.57033509 C0.68993916 220.08919122 0.68993916 220.08919122 -1.24692035 222.64609587 C-4.14762642 225.22871011 -6.02629765 226.00343786 -9.89941406 226.50976562 C-14.17339082 226.21658009 -17.79924275 224.71495826 -21.609375 222.84375 C-22.67628822 222.34350815 -22.67628822 222.34350815 -23.76475525 221.8331604 C-25.29751435 221.11256164 -26.82705747 220.38508961 -28.35360718 219.65142822 C-31.64390432 218.07049334 -34.94985411 216.52361663 -38.25517273 214.97439575 C-39.97138801 214.16966518 -41.68680521 213.36323053 -43.40144348 212.55514526 C-51.77321212 208.61444497 -60.22096154 204.85654273 -68.6875 201.125 C-71.65961616 199.81161369 -74.63083272 198.49620647 -77.6015625 197.1796875 C-78.72825096 196.68039734 -78.72825096 196.68039734 -79.87770081 196.17102051 C-89.46284113 191.91626584 -99.01143455 187.58055095 -108.5625 183.25 C-119.85860354 178.12887741 -131.15822202 173.01934004 -142.5 168 C-145.69719244 166.57970776 -148.89385157 165.158222 -152.09033203 163.73632812 C-155.06617604 162.41346917 -158.04432915 161.09589244 -161.02294922 159.77929688 C-165.72153232 157.70113507 -170.41431489 155.61024171 -175.10449219 153.51318359 C-176.96552744 152.68338384 -178.82827621 151.85741442 -180.69287109 151.03564453 C-201.13514876 142.02058896 -219.78559327 131.08470944 -231 111 C-231.37243134 109.34163219 -231.71267459 107.67521133 -232 106 C-231.26813477 105.67427002 -230.53626953 105.34854004 -229.78222656 105.01293945 C-215.06814168 98.45746474 -200.39625812 91.82674483 -185.79882812 85.0144043 C-176.80915781 80.82467386 -167.78540858 76.71488638 -158.75 72.625 C-147.12648412 67.36232049 -135.55371146 62.00122843 -124.01135254 56.56304932 C-113.19212558 51.46788268 -102.32337594 46.49078488 -91.42724609 41.5625 C-81.24612489 36.95544068 -71.10909753 32.26291178 -61 27.5 C-46.49308219 20.66562183 -31.91287286 13.99910502 -17.29855347 7.39776611 C-14.41112354 6.09343378 -11.526811 4.78294083 -8.64697266 3.46191406 C-7.64585449 3.00268555 -6.64473633 2.54345703 -5.61328125 2.0703125 C-4.74098877 1.66828613 -3.86869629 1.26625977 -2.9699707 0.85205078 C-1 0 -1 0 0 0 Z " fill="#4699FF" transform="translate(486,544)"/>
</svg>
